<svg class="card-label card-label-iact" width="654" height="66" viewBox="0 0 654 66"
        xmlns="http://www.w3.org/2000/svg">
        <rect class="iact" opacity="0" x="14" y="0" width="10" height="10" fill="#FFDD1A" />
        <rect class="iact" opacity="0" x="28" y="0" width="10" height="10" fill="#FFDD1A" />
        <rect class="iact" opacity="0" x="42" y="0" width="10" height="10" fill="#FFDD1A" />
        <rect class="iact" opacity="0" x="28" y="14" width="10" height="10" fill="#FFDD1A" />
        <rect class="iact" opacity="0" x="28" y="28" width="10" height="10" fill="#FFDD1A" />
        <rect class="iact" opacity="0" x="28" y="42" width="10" height="10" fill="#FFDD1A" />
        <rect class="iact" opacity="0" x="14" y="56" width="10" height="10" fill="#FFDD1A" />
        <rect class="iact" opacity="0" x="28" y="56" width="10" height="10" fill="#FFDD1A" />
        <rect class="iact" opacity="0" x="42" y="56" width="10" height="10" fill="#FFDD1A" />
        <rect class="iact" opacity="0" x="84" y="0" width="10" height="10" fill="#FFDD1A" />
        <rect class="iact" opacity="0" x="140" y="0" width="10" height="10" fill="#FFDD1A" />
        <rect class="iact" opacity="0" x="84" y="14" width="10" height="10" fill="#FFDD1A" />
        <rect class="iact" opacity="0" x="98" y="14" width="10" height="10" fill="#FFDD1A" />
        <rect class="iact" opacity="0" x="140" y="14" width="10" height="10" fill="#FFDD1A" />
        <rect class="iact" opacity="0" x="84" y="28" width="10" height="10" fill="#FFDD1A" />
        <rect class="iact" opacity="0" x="112" y="28" width="10" height="10" fill="#FFDD1A" />
        <rect class="iact" opacity="0" x="140" y="28" width="10" height="10" fill="#FFDD1A" />
        <rect class="iact" opacity="0" x="84" y="42" width="10" height="10" fill="#FFDD1A" />
        <rect class="iact" opacity="0" x="126" y="42" width="10" height="10" fill="#FFDD1A" />
        <rect class="iact" opacity="0" x="140" y="42" width="10" height="10" fill="#FFDD1A" />
        <rect class="iact" opacity="0" x="84" y="56" width="10" height="10" fill="#FFDD1A" />
        <rect class="iact" opacity="0" x="140" y="56" width="10" height="10" fill="#FFDD1A" />
        <rect class="iact" opacity="0" x="168" y="0" width="10" height="10" fill="#FFDD1A" />
        <rect class="iact" opacity="0" x="182" y="0" width="10" height="10" fill="#FFDD1A" />
        <rect class="iact" opacity="0" x="196" y="0" width="10" height="10" fill="#FFDD1A" />
        <rect class="iact" opacity="0" x="210" y="0" width="10" height="10" fill="#FFDD1A" />
        <rect class="iact" opacity="0" x="224" y="0" width="10" height="10" fill="#FFDD1A" />
        <rect class="iact" opacity="0" x="196" y="14" width="10" height="10" fill="#FFDD1A" />
        <rect class="iact" opacity="0" x="196" y="28" width="10" height="10" fill="#FFDD1A" />
        <rect class="iact" opacity="0" x="196" y="42" width="10" height="10" fill="#FFDD1A" />
        <rect class="iact" opacity="0" x="196" y="56" width="10" height="10" fill="#FFDD1A" />
        <rect class="iact" opacity="0" x="252" y="0" width="10" height="10" fill="#FFDD1A" />
        <rect class="iact" opacity="0" x="266" y="0" width="10" height="10" fill="#FFDD1A" />
        <rect class="iact" opacity="0" x="280" y="0" width="10" height="10" fill="#FFDD1A" />
        <rect class="iact" opacity="0" x="294" y="0" width="10" height="10" fill="#FFDD1A" />
        <rect class="iact" opacity="0" x="308" y="0" width="10" height="10" fill="#FFDD1A" />
        <rect class="iact" opacity="0" x="252" y="14" width="10" height="10" fill="#FFDD1A" />
        <rect class="iact" opacity="0" x="252" y="28" width="10" height="10" fill="#FFDD1A" />
        <rect class="iact" opacity="0" x="266" y="28" width="10" height="10" fill="#FFDD1A" />
        <rect class="iact" opacity="0" x="280" y="28" width="10" height="10" fill="#FFDD1A" />
        <rect class="iact" opacity="0" x="294" y="28" width="10" height="10" fill="#FFDD1A" />
        <rect class="iact" opacity="0" x="252" y="42" width="10" height="10" fill="#FFDD1A" />
        <rect class="iact" opacity="0" x="252" y="56" width="10" height="10" fill="#FFDD1A" />
        <rect class="iact" opacity="0" x="266" y="56" width="10" height="10" fill="#FFDD1A" />
        <rect class="iact" opacity="0" x="280" y="56" width="10" height="10" fill="#FFDD1A" />
        <rect class="iact" opacity="0" x="294" y="56" width="10" height="10" fill="#FFDD1A" />
        <rect class="iact" opacity="0" x="308" y="56" width="10" height="10" fill="#FFDD1A" />
        <rect class="iact" opacity="0" x="336" y="0" width="10" height="10" fill="#FFDD1A" />
        <rect class="iact" opacity="0" x="350" y="0" width="10" height="10" fill="#FFDD1A" />
        <rect class="iact" opacity="0" x="364" y="0" width="10" height="10" fill="#FFDD1A" />
        <rect class="iact" opacity="0" x="378" y="0" width="10" height="10" fill="#FFDD1A" />
        <rect class="iact" opacity="0" x="336" y="14" width="10" height="10" fill="#FFDD1A" />
        <rect class="iact" opacity="0" x="392" y="14" width="10" height="10" fill="#FFDD1A" />
        <rect class="iact" opacity="0" x="336" y="28" width="10" height="10" fill="#FFDD1A" />
        <rect class="iact" opacity="0" x="350" y="28" width="10" height="10" fill="#FFDD1A" />
        <rect class="iact" opacity="0" x="364" y="28" width="10" height="10" fill="#FFDD1A" />
        <rect class="iact" opacity="0" x="378" y="28" width="10" height="10" fill="#FFDD1A" />
        <rect class="iact" opacity="0" x="336" y="42" width="10" height="10" fill="#FFDD1A" />
        <rect class="iact" opacity="0" x="364" y="42" width="10" height="10" fill="#FFDD1A" />
        <rect class="iact" opacity="0" x="336" y="56" width="10" height="10" fill="#FFDD1A" />
        <rect class="iact" opacity="0" x="378" y="56" width="10" height="10" fill="#FFDD1A" />
        <rect class="iact" opacity="0" x="434" y="0" width="10" height="10" fill="#FFDD1A" />
        <rect class="iact" opacity="0" x="448" y="0" width="10" height="10" fill="#FFDD1A" />
        <rect class="iact" opacity="0" x="462" y="0" width="10" height="10" fill="#FFDD1A" />
        <rect class="iact" opacity="0" x="420" y="14" width="10" height="10" fill="#FFDD1A" />
        <rect class="iact" opacity="0" x="476" y="14" width="10" height="10" fill="#FFDD1A" />
        <rect class="iact" opacity="0" x="420" y="28" width="10" height="10" fill="#FFDD1A" />
        <rect class="iact" opacity="0" x="434" y="28" width="10" height="10" fill="#FFDD1A" />
        <rect class="iact" opacity="0" x="448" y="28" width="10" height="10" fill="#FFDD1A" />
        <rect class="iact" opacity="0" x="462" y="28" width="10" height="10" fill="#FFDD1A" />
        <rect class="iact" opacity="0" x="476" y="28" width="10" height="10" fill="#FFDD1A" />
        <rect class="iact" opacity="0" x="420" y="42" width="10" height="10" fill="#FFDD1A" />
        <rect class="iact" opacity="0" x="476" y="42" width="10" height="10" fill="#FFDD1A" />
        <rect class="iact" opacity="0" x="420" y="56" width="10" height="10" fill="#FFDD1A" />
        <rect class="iact" opacity="0" x="476" y="56" width="10" height="10" fill="#FFDD1A" />
        <rect class="iact" opacity="0" x="518" y="0" width="10" height="10" fill="#FFDD1A" />
        <rect class="iact" opacity="0" x="532" y="0" width="10" height="10" fill="#FFDD1A" />
        <rect class="iact" opacity="0" x="546" y="0" width="10" height="10" fill="#FFDD1A" />
        <rect class="iact" opacity="0" x="504" y="14" width="10" height="10" fill="#FFDD1A" />
        <rect class="iact" opacity="0" x="504" y="28" width="10" height="10" fill="#FFDD1A" />
        <rect class="iact" opacity="0" x="504" y="42" width="10" height="10" fill="#FFDD1A" />
        <rect class="iact" opacity="0" x="518" y="56" width="10" height="10" fill="#FFDD1A" />
        <rect class="iact" opacity="0" x="532" y="56" width="10" height="10" fill="#FFDD1A" />
        <rect class="iact" opacity="0" x="546" y="56" width="10" height="10" fill="#FFDD1A" />
        <rect class="iact" opacity="0" x="588" y="0" width="10" height="10" fill="#FFDD1A" />
        <rect class="iact" opacity="0" x="602" y="0" width="10" height="10" fill="#FFDD1A" />
        <rect class="iact" opacity="0" x="616" y="0" width="10" height="10" fill="#FFDD1A" />
        <rect class="iact" opacity="0" x="630" y="0" width="10" height="10" fill="#FFDD1A" />
        <rect class="iact" opacity="0" x="644" y="0" width="10" height="10" fill="#FFDD1A" />
        <rect class="iact" opacity="0" x="616" y="14" width="10" height="10" fill="#FFDD1A" />
        <rect class="iact" opacity="0" x="616" y="28" width="10" height="10" fill="#FFDD1A" />
        <rect class="iact" opacity="0" x="616" y="42" width="10" height="10" fill="#FFDD1A" />
        <rect class="iact" opacity="0" x="616" y="56" width="10" height="10" fill="#FFDD1A" />
      </svg>