<svg id="hero-s2-title" viewBox="0 0 532 66" xmlns="http://www.w3.org/2000/svg">
              <rect x="0" y="0" width="10" height="10"/>
              <rect x="14" y="0" width="10" height="10"/>
              <rect x="28" y="0" width="10" height="10"/>
              <rect x="42" y="0" width="10" height="10"/>
              <rect x="0" y="14" width="10" height="10"/>
              <rect x="56" y="14" width="10" height="10"/>
              <rect x="0" y="28" width="10" height="10"/>
              <rect x="14" y="28" width="10" height="10"/>
              <rect x="28" y="28" width="10" height="10"/>
              <rect x="42" y="28" width="10" height="10"/>
              <rect x="0" y="42" width="10" height="10"/>
              <rect x="0" y="56" width="10" height="10"/>
              <rect x="84" y="0" width="10" height="10"/>
              <rect x="98" y="0" width="10" height="10"/>
              <rect x="112" y="0" width="10" height="10"/>
              <rect x="126" y="0" width="10" height="10"/>
              <rect x="84" y="14" width="10" height="10"/>
              <rect x="140" y="14" width="10" height="10"/>
              <rect x="84" y="28" width="10" height="10"/>
              <rect x="98" y="28" width="10" height="10"/>
              <rect x="112" y="28" width="10" height="10"/>
              <rect x="126" y="28" width="10" height="10"/>
              <rect x="84" y="42" width="10" height="10"/>
              <rect x="112" y="42" width="10" height="10"/>
              <rect x="84" y="56" width="10" height="10"/>
              <rect x="126" y="56" width="10" height="10"/>
              <rect x="182" y="0" width="10" height="10"/>
              <rect x="196" y="0" width="10" height="10"/>
              <rect x="210" y="0" width="10" height="10"/>
              <rect x="168" y="14" width="10" height="10"/>
              <rect x="224" y="14" width="10" height="10"/>
              <rect x="168" y="28" width="10" height="10"/>
              <rect x="224" y="28" width="10" height="10"/>
              <rect x="168" y="42" width="10" height="10"/>
              <rect x="224" y="42" width="10" height="10"/>
              <rect x="182" y="56" width="10" height="10"/>
              <rect x="196" y="56" width="10" height="10"/>
              <rect x="210" y="56" width="10" height="10"/>
              <rect x="294" y="0" width="10" height="10"/>
              <rect x="350" y="0" width="10" height="10"/>
              <rect x="294" y="14" width="10" height="10"/>
              <rect x="308" y="14" width="10" height="10"/>
              <rect x="350" y="14" width="10" height="10"/>
              <rect x="294" y="28" width="10" height="10"/>
              <rect x="322" y="28" width="10" height="10"/>
              <rect x="350" y="28" width="10" height="10"/>
              <rect x="294" y="42" width="10" height="10"/>
              <rect x="336" y="42" width="10" height="10"/>
              <rect x="350" y="42" width="10" height="10"/>
              <rect x="294" y="56" width="10" height="10"/>
              <rect x="350" y="56" width="10" height="10"/>
              <rect x="392" y="0" width="10" height="10"/>
              <rect x="406" y="0" width="10" height="10"/>
              <rect x="420" y="0" width="10" height="10"/>
              <rect x="378" y="14" width="10" height="10"/>
              <rect x="434" y="14" width="10" height="10"/>
              <rect x="378" y="28" width="10" height="10"/>
              <rect x="392" y="28" width="10" height="10"/>
              <rect x="406" y="28" width="10" height="10"/>
              <rect x="420" y="28" width="10" height="10"/>
              <rect x="434" y="28" width="10" height="10"/>
              <rect x="378" y="42" width="10" height="10"/>
              <rect x="434" y="42" width="10" height="10"/>
              <rect x="378" y="56" width="10" height="10"/>
              <rect x="434" y="56" width="10" height="10"/>
              <rect x="462" y="0" width="10" height="10"/>
              <rect x="476" y="0" width="10" height="10"/>
              <rect x="490" y="0" width="10" height="10"/>
              <rect x="504" y="0" width="10" height="10"/>
              <rect x="462" y="14" width="10" height="10"/>
              <rect x="518" y="14" width="10" height="10"/>
              <rect x="462" y="28" width="10" height="10"/>
              <rect x="476" y="28" width="10" height="10"/>
              <rect x="490" y="28" width="10" height="10"/>
              <rect x="504" y="28" width="10" height="10"/>
              <rect x="462" y="42" width="10" height="10"/>
              <rect x="462" y="56" width="10" height="10"/>
            </svg>