<svg class="card-label card-label-pnr" width="532" height="66" viewBox="0 0 532 66"
        xmlns="http://www.w3.org/2000/svg">
        <rect class="pnr" opacity="0" x="0" y="0" width="10" height="10" fill="#000" />
        <rect class="pnr" opacity="0" x="14" y="0" width="10" height="10" fill="#000" />
        <rect class="pnr" opacity="0" x="28" y="0" width="10" height="10" fill="#000" />
        <rect class="pnr" opacity="0" x="42" y="0" width="10" height="10" fill="#000" />
        <rect class="pnr" opacity="0" x="0" y="14" width="10" height="10" fill="#000" />
        <rect class="pnr" opacity="0" x="56" y="14" width="10" height="10" fill="#000" />
        <rect class="pnr" opacity="0" x="0" y="28" width="10" height="10" fill="#000" />
        <rect class="pnr" opacity="0" x="14" y="28" width="10" height="10" fill="#000" />
        <rect class="pnr" opacity="0" x="28" y="28" width="10" height="10" fill="#000" />
        <rect class="pnr" opacity="0" x="42" y="28" width="10" height="10" fill="#000" />
        <rect class="pnr" opacity="0" x="0" y="42" width="10" height="10" fill="#000" />
        <rect class="pnr" opacity="0" x="0" y="56" width="10" height="10" fill="#000" />
        <rect class="pnr" opacity="0" x="84" y="0" width="10" height="10" fill="#000" />
        <rect class="pnr" opacity="0" x="98" y="0" width="10" height="10" fill="#000" />
        <rect class="pnr" opacity="0" x="112" y="0" width="10" height="10" fill="#000" />
        <rect class="pnr" opacity="0" x="126" y="0" width="10" height="10" fill="#000" />
        <rect class="pnr" opacity="0" x="84" y="14" width="10" height="10" fill="#000" />
        <rect class="pnr" opacity="0" x="140" y="14" width="10" height="10" fill="#000" />
        <rect class="pnr" opacity="0" x="84" y="28" width="10" height="10" fill="#000" />
        <rect class="pnr" opacity="0" x="98" y="28" width="10" height="10" fill="#000" />
        <rect class="pnr" opacity="0" x="112" y="28" width="10" height="10" fill="#000" />
        <rect class="pnr" opacity="0" x="126" y="28" width="10" height="10" fill="#000" />
        <rect class="pnr" opacity="0" x="84" y="42" width="10" height="10" fill="#000" />
        <rect class="pnr" opacity="0" x="112" y="42" width="10" height="10" fill="#000" />
        <rect class="pnr" opacity="0" x="84" y="56" width="10" height="10" fill="#000" />
        <rect class="pnr" opacity="0" x="126" y="56" width="10" height="10" fill="#000" />
        <rect class="pnr" opacity="0" x="182" y="0" width="10" height="10" fill="#000" />
        <rect class="pnr" opacity="0" x="196" y="0" width="10" height="10" fill="#000" />
        <rect class="pnr" opacity="0" x="210" y="0" width="10" height="10" fill="#000" />
        <rect class="pnr" opacity="0" x="168" y="14" width="10" height="10" fill="#000" />
        <rect class="pnr" opacity="0" x="224" y="14" width="10" height="10" fill="#000" />
        <rect class="pnr" opacity="0" x="168" y="28" width="10" height="10" fill="#000" />
        <rect class="pnr" opacity="0" x="224" y="28" width="10" height="10" fill="#000" />
        <rect class="pnr" opacity="0" x="168" y="42" width="10" height="10" fill="#000" />
        <rect class="pnr" opacity="0" x="224" y="42" width="10" height="10" fill="#000" />
        <rect class="pnr" opacity="0" x="182" y="56" width="10" height="10" fill="#000" />
        <rect class="pnr" opacity="0" x="196" y="56" width="10" height="10" fill="#000" />
        <rect class="pnr" opacity="0" x="210" y="56" width="10" height="10" fill="#000" />
        <rect class="pnr" opacity="0" x="294" y="0" width="10" height="10" fill="#000" />
        <rect class="pnr" opacity="0" x="350" y="0" width="10" height="10" fill="#000" />
        <rect class="pnr" opacity="0" x="294" y="14" width="10" height="10" fill="#000" />
        <rect class="pnr" opacity="0" x="308" y="14" width="10" height="10" fill="#000" />
        <rect class="pnr" opacity="0" x="350" y="14" width="10" height="10" fill="#000" />
        <rect class="pnr" opacity="0" x="294" y="28" width="10" height="10" fill="#000" />
        <rect class="pnr" opacity="0" x="322" y="28" width="10" height="10" fill="#000" />
        <rect class="pnr" opacity="0" x="350" y="28" width="10" height="10" fill="#000" />
        <rect class="pnr" opacity="0" x="294" y="42" width="10" height="10" fill="#000" />
        <rect class="pnr" opacity="0" x="336" y="42" width="10" height="10" fill="#000" />
        <rect class="pnr" opacity="0" x="350" y="42" width="10" height="10" fill="#000" />
        <rect class="pnr" opacity="0" x="294" y="56" width="10" height="10" fill="#000" />
        <rect class="pnr" opacity="0" x="350" y="56" width="10" height="10" fill="#000" />
        <rect class="pnr" opacity="0" x="392" y="0" width="10" height="10" fill="#000" />
        <rect class="pnr" opacity="0" x="406" y="0" width="10" height="10" fill="#000" />
        <rect class="pnr" opacity="0" x="420" y="0" width="10" height="10" fill="#000" />
        <rect class="pnr" opacity="0" x="378" y="14" width="10" height="10" fill="#000" />
        <rect class="pnr" opacity="0" x="434" y="14" width="10" height="10" fill="#000" />
        <rect class="pnr" opacity="0" x="378" y="28" width="10" height="10" fill="#000" />
        <rect class="pnr" opacity="0" x="392" y="28" width="10" height="10" fill="#000" />
        <rect class="pnr" opacity="0" x="406" y="28" width="10" height="10" fill="#000" />
        <rect class="pnr" opacity="0" x="420" y="28" width="10" height="10" fill="#000" />
        <rect class="pnr" opacity="0" x="434" y="28" width="10" height="10" fill="#000" />
        <rect class="pnr" opacity="0" x="378" y="42" width="10" height="10" fill="#000" />
        <rect class="pnr" opacity="0" x="434" y="42" width="10" height="10" fill="#000" />
        <rect class="pnr" opacity="0" x="378" y="56" width="10" height="10" fill="#000" />
        <rect class="pnr" opacity="0" x="434" y="56" width="10" height="10" fill="#000" />
        <rect class="pnr" opacity="0" x="462" y="0" width="10" height="10" fill="#000" />
        <rect class="pnr" opacity="0" x="476" y="0" width="10" height="10" fill="#000" />
        <rect class="pnr" opacity="0" x="490" y="0" width="10" height="10" fill="#000" />
        <rect class="pnr" opacity="0" x="504" y="0" width="10" height="10" fill="#000" />
        <rect class="pnr" opacity="0" x="462" y="14" width="10" height="10" fill="#000" />
        <rect class="pnr" opacity="0" x="518" y="14" width="10" height="10" fill="#000" />
        <rect class="pnr" opacity="0" x="462" y="28" width="10" height="10" fill="#000" />
        <rect class="pnr" opacity="0" x="476" y="28" width="10" height="10" fill="#000" />
        <rect class="pnr" opacity="0" x="490" y="28" width="10" height="10" fill="#000" />
        <rect class="pnr" opacity="0" x="504" y="28" width="10" height="10" fill="#000" />
        <rect class="pnr" opacity="0" x="462" y="42" width="10" height="10" fill="#000" />
        <rect class="pnr" opacity="0" x="462" y="56" width="10" height="10" fill="#000" />
      </svg>